<svg xmlns="http://www.w3.org/2000/svg" width="21.484" height="24.871" viewBox="0 0 21.484 24.871">
  <g id="Group_10" data-name="Group 10" transform="translate(-41.1 -9.75)">
    <path id="Icon_awesome-infinity" data-name="Icon awesome-infinity" d="M12.708,6.75A5.639,5.639,0,0,0,8.632,8.87,5.639,5.639,0,0,0,4.556,6.75,4.447,4.447,0,0,0,0,11.066a4.447,4.447,0,0,0,4.556,4.316,5.639,5.639,0,0,0,4.076-2.12,5.639,5.639,0,0,0,4.076,2.12,4.447,4.447,0,0,0,4.556-4.316A4.447,4.447,0,0,0,12.708,6.75ZM4.556,12.792A1.86,1.86,0,0,1,2.59,11.066,1.86,1.86,0,0,1,4.556,9.34a3.694,3.694,0,0,1,2.536,1.726A3.713,3.713,0,0,1,4.556,12.792Zm8.152,0a3.694,3.694,0,0,1-2.536-1.726A3.713,3.713,0,0,1,12.708,9.34a1.86,1.86,0,0,1,1.966,1.726A1.86,1.86,0,0,1,12.708,12.792Z" transform="translate(42.635 3)"/>
    <path id="Icon_awesome-coffee" data-name="Icon awesome-coffee" d="M6.442,14.065h6.445a3.223,3.223,0,0,0,3.222-3.222h1.074a4.3,4.3,0,1,0,0-8.593H4.026a.8.8,0,0,0-.806.806v7.787A3.223,3.223,0,0,0,6.442,14.065ZM17.183,4.4a2.148,2.148,0,1,1,0,4.3H16.109V4.4Zm1.6,12.889H1.619c-1.6,0-2.047-2.148-1.208-2.148H19.989c.839,0,.4,2.148-1.2,2.148Z" transform="translate(41.104 17.333)"/>
  </g>
</svg>
